<svg width="96" height="96" xmlns="http://www.w3.org/2000/svg" xmlns:xlink="http://www.w3.org/1999/xlink" xml:space="preserve" overflow="hidden"><g transform="translate(-592 -312)"><path d="M615.6 373.717 613.1 381.217 618.8 386.917 626.3 384.417C628.29 385.53 630.404 386.403 632.6 387.017L636.1 394.017 644.1 394.017 647.6 387.017C649.77 386.421 651.854 385.547 653.8 384.417L661.3 386.917 667 381.217 664.5 373.717C665.612 371.727 666.485 369.612 667.1 367.417L674.1 363.917 674.1 355.917 667 352.517C666.403 350.347 665.529 348.263 664.4 346.317L666.9 338.817 661.2 333.117 653.7 335.617C651.71 334.504 649.596 333.631 647.4 333.017L644 326 636 326 632.5 333C630.33 333.596 628.246 334.47 626.3 335.6L618.8 333.1 613.1 338.8 615.6 346.3C614.488 348.29 613.615 350.405 613 352.6L606 356 606 364 613 367.5C613.596 369.676 614.469 371.765 615.6 373.717ZM608 357.264 613.874 354.41 614.691 354.01 614.93 353.134C615.504 351.091 616.317 349.122 617.353 347.269L617.774 346.503 617.498 345.673 615.388 339.344 619.341 335.39 625.668 337.5 626.523 337.785 627.303 337.333C629.1 336.29 631.024 335.483 633.027 334.933L633.89 334.698 634.29 333.898 637.238 328 642.75 328 645.6 333.88 646 334.696 646.876 334.935C648.919 335.51 650.887 336.324 652.739 337.359L653.506 337.781 654.336 337.504 660.663 335.394 664.616 339.348 662.506 345.677 662.221 346.532 662.673 347.311C663.716 349.108 664.523 351.033 665.073 353.037L665.314 353.92 666.139 354.315 672.1 357.172 672.1 362.679 666.205 365.627 665.405 366.027 665.17 366.889C664.596 368.932 663.782 370.901 662.747 372.754L662.326 373.52 662.602 374.35 664.712 380.679 660.759 384.633 654.432 382.523 653.577 382.238 652.797 382.69C651 383.733 649.076 384.54 647.072 385.09L646.21 385.325 645.81 386.125 642.862 392.025 637.338 392.025 634.391 386.125 633.991 385.325 633.128 385.09C631.086 384.515 629.118 383.701 627.266 382.666L626.499 382.244 625.669 382.521 619.342 384.631 615.389 380.677 617.5 374.35 617.784 373.495 617.333 372.715C616.289 370.918 615.482 368.993 614.933 366.989L614.697 366.127 613.897 365.727 608 362.779Z"/><path d="M640 372.017C646.627 372.017 652 366.644 652 360.017 652 353.39 646.627 348.017 640 348.017 633.373 348.017 628 353.39 628 360.017 628.021 366.636 633.381 371.996 640 372.017ZM640 350.01C645.523 350.01 650 354.487 650 360.01 650 365.533 645.523 370.01 640 370.01 634.477 370.01 630 365.533 630 360.01 630.007 354.49 634.48 350.017 640 350.01Z"/></g></svg>