<svg width="96" height="96" xmlns="http://www.w3.org/2000/svg" xmlns:xlink="http://www.w3.org/1999/xlink" xml:space="preserve" overflow="hidden"><g transform="translate(-392 -573)"><path d="M440 585C459.882 585 476 601.118 476 621 476 640.882 459.882 657 440 657 420.118 657 404 640.882 404 621 404.023 601.127 420.127 585.023 440 585M440 583C419.013 583 402 600.013 402 621 402 641.987 419.013 659 440 659 460.987 659 478 641.987 478 621 478.009 600.023 461.011 583.009 440.034 583 440.023 583 440.011 583 440 583Z"/><path d="M440 591C456.568 591 470 604.432 470 621 470 637.568 456.568 651 440 651 423.431 651 410 637.568 410 621 410.019 604.439 423.439 591.019 440 591M440 589C422.327 589 408 603.327 408 621 408 638.673 422.327 653 440 653 457.673 653 472 638.673 472 621 471.98 603.335 457.665 589.02 440 589Z"/><path d="M444.866 626.067 428.077 632.935 434.934 616.327 451.723 609.305ZM433.4 614.8 424.4 636.6 446.4 627.6 455.4 605.6Z"/><path d="M442 621C442 622.105 441.105 623 440 623 438.895 623 438 622.105 438 621 438 619.895 438.895 619 440 619 441.105 619 442 619.895 442 621Z"/></g></svg>