<svg width="96" height="96" xmlns="http://www.w3.org/2000/svg" xmlns:xlink="http://www.w3.org/1999/xlink" xml:space="preserve" overflow="hidden"><g transform="translate(-516 -570)"><path d="M593 621 592 621 592 600C591.993 593.928 587.072 589.007 581 589L576.949 589C576.408 581.848 570.172 576.489 563.019 577.03 556.62 577.514 551.533 582.6 551.049 589L547 589C540.928 589.007 536.007 593.928 536 600L536 621 535 621C532.24 621.003 530.003 623.24 530 626L530 640C530.003 642.76 532.24 644.997 535 645L536 645 536 647C536.004 650.864 539.136 653.996 543 654L587 654C589.76 653.997 591.997 651.76 592 649L592 645 593 645C595.76 644.997 597.997 642.76 598 640L598 626C597.997 623.24 595.76 621.003 593 621ZM564 579C569.684 579.008 574.428 583.34 574.949 589L553.049 589C553.57 583.339 558.315 579.006 564 579ZM581 591C581.334 591.001 581.668 591.021 582 591.059L582 608C582 609.657 580.657 611 579 611L568 611 568 609C568 607.343 566.657 606 565 606L563 606C561.343 606 560 607.343 560 609L560 611 549 611C547.343 611 546 609.657 546 608L546 591.059C546.332 591.021 546.666 591.001 547 591ZM566 609 566 615C566 615.552 565.552 616 565 616L563 616C562.448 616 562 615.552 562 615L562 609C562 608.448 562.448 608 563 608L565 608C565.552 608 566 608.448 566 609ZM535 643C533.343 643 532 641.657 532 640L532 626C532 624.343 533.343 623 535 623L536 623 536 643ZM579 652 549 652 549 641C549 639.343 550.343 638 552 638L576 638C577.657 638 579 639.343 579 641ZM590 649C590 650.657 588.657 652 587 652L581 652 581 641C580.997 638.24 578.76 636.003 576 636L552 636C549.24 636.003 547.003 638.24 547 641L547 652 543 652C540.24 651.997 538.003 649.76 538 647L538 600C538.007 596.19 540.409 592.797 544 591.525L544 608C544.003 610.76 546.24 612.997 549 613L560 613 560 615C560 616.657 561.343 618 563 618L565 618C566.657 618 568 616.657 568 615L568 613 579 613C581.76 612.997 583.997 610.76 584 608L584 591.525C587.591 592.797 589.993 596.19 590 600L590 649ZM596 640C596 641.657 594.657 643 593 643L592 643 592 623 593 623C594.657 623 596 624.343 596 626Z"/></g></svg>