<svg width="96" height="96" xmlns="http://www.w3.org/2000/svg" xmlns:xlink="http://www.w3.org/1999/xlink" xml:space="preserve" overflow="hidden"><g transform="translate(-1136 -342)"><path d="M1184 358C1191.73 358 1198 364.268 1198 372 1198 379.732 1191.73 386 1184 386 1176.27 386 1170 379.732 1170 372 1170.01 364.271 1176.27 358.008 1184 358M1184 356C1175.16 356 1168 363.163 1168 372 1168 380.837 1175.16 388 1184 388 1192.84 388 1200 380.837 1200 372 1200 363.163 1192.84 356 1184 356Z"/><path d="M1216 424 1214 424 1214 408.5C1213.95 406.376 1212.95 404.386 1211.28 403.081 1206.89 399.716 1201.87 397.273 1196.51 395.9 1192.46 394.652 1188.24 394.012 1184 394 1179.76 394.074 1175.55 394.713 1171.48 395.9 1166.18 397.452 1161.18 399.886 1156.69 403.1 1155.03 404.406 1154.04 406.388 1154 408.5L1154 424 1152 424 1152 408.5C1152.05 405.769 1153.33 403.205 1155.48 401.519 1160.17 398.151 1165.39 395.601 1170.94 393.977 1175.18 392.74 1179.58 392.075 1184 392 1188.43 392.011 1192.84 392.678 1197.07 393.979 1202.68 395.424 1207.94 397.991 1212.53 401.525 1214.68 403.211 1215.95 405.772 1216 408.5Z"/></g></svg>